<svg width="88" height="88" viewBox="0 0 88 88" fill="none" xmlns="http://www.w3.org/2000/svg">
<rect width="88" height="88" fill="#4C0F89"/>
<path d="M48.6667 29.625L57.1667 38.25M35.6333 39.975L16.327 59.5653C15.2642 60.6433 14.667 62.1056 14.6667 63.6305V69.875C14.6667 70.6375 14.9652 71.3688 15.4965 71.9079C16.0279 72.4471 16.7485 72.75 17.5 72.75H26C26.7514 72.75 27.4721 72.4471 28.0035 71.9079C28.5348 71.3688 28.8333 70.6375 28.8333 69.875V67C28.8333 66.2375 29.1318 65.5062 29.6632 64.9671C30.1945 64.4279 30.9152 64.125 31.6667 64.125H34.5C35.2514 64.125 35.9721 63.8221 36.5035 63.2829C37.0348 62.7438 37.3333 62.0125 37.3333 61.25V58.375C37.3333 57.6125 37.6318 56.8812 38.1632 56.3421C38.6945 55.8029 39.4152 55.5 40.1667 55.5H40.654C42.1568 55.4997 43.5979 54.8937 44.6603 53.8153L46.9667 51.475M44.1333 17.2625C45.4431 16.0299 47.1636 15.345 48.95 15.345C50.7364 15.345 52.4568 16.0299 53.7667 17.2625L69.35 33.075C70.5647 34.4041 71.2397 36.1498 71.2397 37.9625C71.2397 39.7752 70.5647 41.5209 69.35 42.85L58.8667 53.4875C57.5568 54.7201 55.8364 55.405 54.05 55.405C52.2636 55.405 50.5431 54.7201 49.2333 53.4875L33.65 37.675C32.4352 36.3459 31.7602 34.6002 31.7602 32.7875C31.7602 30.9748 32.4352 29.2291 33.65 27.9L44.1333 17.2625Z" stroke="#E8E2F8" stroke-width="4" stroke-linecap="round" stroke-linejoin="round"/>
</svg>
