<svg width="256" height="256" viewBox="0 0 256 256" fill="none" xmlns="http://www.w3.org/2000/svg">
<rect width="256" height="256" rx="32" fill="#4C0F89"/>
<path d="M147.833 78.4167L177.583 108.167M102.217 114.117L34.6445 181.689C30.9248 185.407 28.8345 190.451 28.8333 195.711V217.25C28.8333 219.88 29.8781 222.402 31.7379 224.262C33.5976 226.122 36.1199 227.167 38.75 227.167H68.5C71.1301 227.167 73.6524 226.122 75.5121 224.262C77.3719 222.402 78.4167 219.88 78.4167 217.25V207.333C78.4167 204.703 79.4615 202.181 81.3212 200.321C83.1809 198.461 85.7033 197.417 88.3333 197.417H98.25C100.88 197.417 103.402 196.372 105.262 194.512C107.122 192.652 108.167 190.13 108.167 187.5V177.583C108.167 174.953 109.211 172.431 111.071 170.571C112.931 168.711 115.453 167.667 118.083 167.667H119.789C125.049 167.666 130.093 165.575 133.811 161.855L141.883 153.783M131.967 35.775C136.551 31.5233 142.573 29.1609 148.825 29.1609C155.077 29.1609 161.099 31.5233 165.683 35.775L220.225 90.3167C224.477 94.901 226.839 100.923 226.839 107.175C226.839 113.427 224.477 119.449 220.225 124.033L183.533 160.725C178.949 164.977 172.927 167.339 166.675 167.339C160.423 167.339 154.401 164.977 149.817 160.725L95.275 106.183C91.0233 101.599 88.6609 95.5774 88.6609 89.325C88.6609 83.0726 91.0233 77.051 95.275 72.4667L131.967 35.775Z" stroke="#E8E2F8" stroke-width="12" stroke-linecap="round" stroke-linejoin="round"/>
</svg>
